<svg width="210" height="64" viewBox="0 0 210 64" fill="none" xmlns="http://www.w3.org/2000/svg" role="img" aria-label="Plinky"><defs><linearGradient id="plinky-bg" x1="6" y1="6" x2="58" y2="58" gradientUnits="userSpaceOnUse"><stop stop-color="#6366f1"/><stop offset="1" stop-color="#a855f7"/></linearGradient></defs><g><rect x="2" y="2" width="60" height="60" rx="16" fill="url(#plinky-bg)"/><rect x="12" y="16" width="11" height="32" rx="2.5" fill="#ffffff"/><rect x="26.5" y="16" width="11" height="32" rx="2.5" fill="#22c55e"/><rect x="41" y="16" width="11" height="32" rx="2.5" fill="#ffffff"/><rect x="21.75" y="16" width="6" height="15" rx="1.5" fill="#1f2937"/><rect x="36.25" y="16" width="6" height="15" rx="1.5" fill="#1f2937"/></g><g transform="translate(80 47.0) scale(0.02013 -0.02013)"><path d="M135 0V1490H716Q886 1490 1005.0 1425.5Q1124 1361 1186.5 1247.5Q1249 1134 1249 987Q1249 839 1185.5 726.5Q1122 614 1001.5 550.5Q881 487 709 487H335V733H660Q754 733 814.5 765.5Q875 798 904.5 855.0Q934 912 934 987Q934 1062 904.5 1118.5Q875 1175 814.0 1206.5Q753 1238 659 1238H440V0ZM1755 1490V0H1455V1490ZM2010 0V1118H2310V0ZM2160 1264Q2092 1264 2044.0 1309.0Q1996 1354 1996 1418Q1996 1482 2044.0 1527.0Q2092 1572 2160 1572Q2228 1572 2276.5 1527.5Q2325 1483 2325 1418Q2325 1354 2276.5 1309.0Q2228 1264 2160 1264ZM2865 647V0H2565V1118H2848L2853 839H2835Q2879 979 2968.5 1055.5Q3058 1132 3200 1132Q3316 1132 3402.5 1081.5Q3489 1031 3536.5 936.5Q3584 842 3584 711V0H3284V659Q3284 763 3230.5 822.0Q3177 881 3082 881Q3019 881 2969.5 853.5Q2920 826 2892.5 774.0Q2865 722 2865 647ZM4112 327V688H4157L4523 1118H4870L4387 557H4316ZM3840 0V1490H4140V0ZM4538 0 4202 490 4403 703 4891 0ZM5020 -396 5089 -170 5126 -179Q5186 -195 5233.0 -188.0Q5280 -181 5308.5 -150.0Q5337 -119 5343 -63L5351 -3L4931 1118H5250L5438 538Q5472 428 5493.5 318.0Q5515 208 5543 88H5473Q5500 208 5527.0 318.5Q5554 429 5590 538L5786 1118H6101L5626 -132Q5592 -222 5539.0 -288.0Q5486 -354 5407.0 -390.0Q5328 -426 5216 -426Q5156 -426 5104.0 -417.5Q5052 -409 5020 -396Z" fill="#ffffff"/></g></svg>
