<!--
SPDX-FileCopyrightText: The Plinky Authors
SPDX-License-Identifier: AGPL-3.0-or-later
-->
<svg xmlns="http://www.w3.org/2000/svg" width="100" height="100" viewBox="0 0 100 100" role="img" aria-label="Plinky"><defs><radialGradient id="pg" cx="50" cy="23" r="50" gradientUnits="userSpaceOnUse"><stop offset="0" stop-color="#b07cff"/><stop offset=".2" stop-color="#8a7cff"/><stop offset=".45" stop-color="#6a5cf0" stop-opacity=".85"/><stop offset=".75" stop-color="#4012c0" stop-opacity=".45"/><stop offset="1" stop-color="#3200af" stop-opacity="0"/></radialGradient><linearGradient id="pb" x1="0" y1="0" x2="0" y2="1"><stop offset="0" stop-color="#4a1fd8"/><stop offset=".42" stop-color="#20166d"/><stop offset="1" stop-color="#1c1649"/></linearGradient><linearGradient id="pl" x1="0" y1="0" x2="0" y2="1"><stop offset="0" stop-color="#8f6efe"/><stop offset="1" stop-color="#a739fe"/></linearGradient><filter id="ph" x="-2" y="-2" width="5" height="5"><feGaussianBlur stdDeviation="1.1"/></filter><filter id="ps" x="-.1" y="-.3" width="1.2" height="1.8"><feDropShadow dx="0" dy=".7" stdDeviation=".8" flood-color="#12004a" flood-opacity=".45"/></filter></defs><rect width="100" height="100" fill="#3200af"/><rect width="100" height="100" fill="url(#pg)"/><rect x="23" y="30.5" width="14" height="44.9" rx="3.1" fill="#b0bdff"/><rect x="23" y="28.5" width="14" height="45" rx="3.1" fill="#fdfdff"/><rect x="40.5" y="30.5" width="19" height="44.9" rx="3.1" fill="#b0bdff"/><rect x="40.5" y="28.5" width="19" height="45" rx="3.1" fill="#fdfdff"/><rect x="63" y="30.5" width="14" height="44.9" rx="3.1" fill="#b0bdff"/><rect x="63" y="28.5" width="14" height="45" rx="3.1" fill="#fdfdff"/><rect x="49.33" y="28.5" width="1.34" height="37" fill="url(#pl)"/><circle cx="50" cy="65.7" r="3.2" fill="#a836fe"/><rect x="32.4" y="27" width="12" height="33.4" rx="3.1" fill="#4b4be2"/><rect x="32.4" y="25.3" width="12" height="33.6" rx="3.1" fill="url(#pb)"/><rect x="55.6" y="27" width="12" height="33.4" rx="3.1" fill="#4b4be2"/><rect x="55.6" y="25.3" width="12" height="33.6" rx="3.1" fill="url(#pb)"/><circle cx="50" cy="13.4" r="3.4" fill="#fff" opacity=".85" filter="url(#ph)"/><circle cx="50" cy="13.4" r="2.3" fill="#fff"/><circle cx="50" cy="19.6" r=".8" fill="#fff"/><circle cx="50" cy="22.8" r=".8" fill="#fff"/><circle cx="50" cy="26" r=".8" fill="#fff"/></svg>
